<svg width="208" height="48" viewBox="0 0 208 48" fill="none" xmlns="http://www.w3.org/2000/svg">
<path d="M71.5 36.294C69.54 36.294 67.79 36 66.25 35.412C64.71 34.824 63.506 33.998 62.638 32.934C61.77 31.842 61.336 30.596 61.336 29.196C61.336 28.944 61.364 28.566 61.42 28.062H69.358C69.33 28.846 69.568 29.448 70.072 29.868C70.576 30.288 71.276 30.498 72.172 30.498C72.872 30.498 73.446 30.358 73.894 30.078C74.37 29.798 74.608 29.434 74.608 28.986C74.608 28.454 74.314 28.048 73.726 27.768C73.138 27.46 72.158 27.082 70.786 26.634C69.19 26.13 67.874 25.64 66.838 25.164C65.802 24.688 64.892 23.988 64.108 23.064C63.352 22.14 62.974 20.95 62.974 19.494C62.974 18.094 63.38 16.834 64.192 15.714C65.032 14.594 66.208 13.726 67.72 13.11C69.232 12.466 70.982 12.144 72.97 12.144C75.098 12.144 76.932 12.508 78.472 13.236C80.04 13.936 81.202 14.916 81.958 16.176C82.742 17.436 83.092 18.836 83.008 20.376H75.616C75.644 19.62 75.42 19.032 74.944 18.612C74.468 18.164 73.782 17.94 72.886 17.94C72.242 17.94 71.71 18.08 71.29 18.36C70.87 18.64 70.66 19.004 70.66 19.452C70.66 19.984 70.954 20.404 71.542 20.712C72.158 21.02 73.18 21.412 74.608 21.888C76.176 22.392 77.478 22.896 78.514 23.4C79.578 23.876 80.488 24.562 81.244 25.458C82 26.326 82.378 27.446 82.378 28.818C82.378 31.142 81.37 32.976 79.354 34.32C77.338 35.636 74.72 36.294 71.5 36.294ZM97.2111 27.18C97.1831 27.32 97.1691 27.488 97.1691 27.684C97.1691 28.132 97.2951 28.468 97.5471 28.692C97.8271 28.888 98.2751 28.986 98.8911 28.986H101.285L100.025 36H96.4131C91.2891 36 88.7271 33.844 88.7271 29.532C88.7271 28.804 88.8111 27.978 88.9791 27.054L90.3651 19.284H87.4671L88.6851 12.438H91.5831L92.5911 6.726H100.865L99.8571 12.438H104.099L102.881 19.284H98.6391L97.2111 27.18ZM115.553 12.438L118.115 25.794L125.255 12.438H134.285L113.243 47.214H104.297L112.067 34.992L106.397 12.438H115.553ZM147.056 4.92L141.554 36H133.28L138.782 4.92H147.056ZM155.936 10.254C154.648 10.254 153.626 9.932 152.87 9.288C152.142 8.644 151.778 7.818 151.778 6.81C151.778 5.914 152.016 5.088 152.492 4.332C152.996 3.548 153.668 2.932 154.508 2.484C155.376 2.008 156.342 1.77 157.406 1.77C158.694 1.77 159.702 2.106 160.43 2.778C161.186 3.422 161.564 4.262 161.564 5.298C161.564 6.194 161.312 7.02 160.808 7.776C160.332 8.532 159.66 9.134 158.792 9.582C157.924 10.03 156.972 10.254 155.936 10.254ZM159.632 12.438L155.474 36H147.2L151.4 12.438H159.632ZM178.382 9.918C178.158 9.89 177.864 9.876 177.5 9.876C176.576 9.876 175.876 10.086 175.4 10.506C174.924 10.898 174.574 11.542 174.35 12.438H178.046L176.828 19.284H173.132L170.192 36H161.918L164.858 19.284H162.296L163.514 12.438H166.076L166.118 12.228C166.678 9.204 167.98 6.894 170.024 5.298C172.068 3.674 174.742 2.862 178.046 2.862C178.718 2.862 179.236 2.876 179.6 2.904L178.382 9.918ZM188.582 12.438L191.144 25.794L198.284 12.438H207.314L186.272 47.214H177.326L185.096 34.992L179.426 12.438H188.582Z" fill="black"/>
<path d="M43.615 20.282L41.907 28.273H49.227V37.667H39.894L37.881 47H28.121L30.134 37.667H20.008L17.995 47H8.235L10.248 37.667H1.22V28.273H12.261L13.969 20.282H5.124V10.888H15.921L17.873 1.86H27.633L25.681 10.888H35.807L37.759 1.86H47.519L45.567 10.888H53.131V20.282H43.615ZM33.855 20.282H23.729L22.021 28.273H32.147L33.855 20.282Z" fill="#01BEFE"/>
</svg>
